<svg id="Layer_1" data-name="Layer 1" xmlns="http://www.w3.org/2000/svg" xmlns:xlink="http://www.w3.org/1999/xlink" viewBox="0 0 328.81 97.53"><defs><clipPath id="clip-path"><rect id="SVGID" x="274.86" y="2.38" width="50.79" height="51" style="fill:none"/></clipPath><clipPath id="clip-path-2"><rect id="SVGID-2" data-name="SVGID" x="274.77" y="2.21" width="50.88" height="51.36" style="fill:none"/></clipPath><clipPath id="clip-path-3"><rect id="SVGID-3" data-name="SVGID" x="291.33" y="2.21" width="34.32" height="34.32" style="fill:none"/></clipPath><clipPath id="clip-path-4"><rect id="SVGID-4" data-name="SVGID" x="308.37" y="2.21" width="17.28" height="17.52" style="fill:none"/></clipPath></defs><path d="M95.87,47.36c0,1.81.06,3.49,0,5.15,0,.37-.5.85-.89,1.05a15.63,15.63,0,0,1-21.82-8.91c-2.69-7.72.27-18.81,10.78-21.74a15.46,15.46,0,0,1,19.78,12,16.51,16.51,0,0,1,.32,3.22c0,4.79,0,9.59,0,14.39a20.24,20.24,0,0,1-1.45,7.84c-2.33,5.45-6.55,8.37-12.37,9.13a31.57,31.57,0,0,1-12.07-1.2c-.78-.2-.93-.51-.7-1.27.43-1.4.74-2.84,1.09-4.25,2.21.48,4.29,1,6.41,1.38a14.58,14.58,0,0,0,6.87-.51,9,9,0,0,0,6.56-8.78q.12-8.14,0-16.31c-.08-4.85-2.88-9-6.83-10.35a10,10,0,0,0-13.33,8.26,16.09,16.09,0,0,0,.15,6.15c1.45,5.83,8.38,8.94,14,6.49C93.5,48.59,94.61,48,95.87,47.36Z" style="fill:#194fa2"/><path d="M263.88,68.66h-5.59c0-.39-.05-.78-.05-1.16,0-9.44,0-18.88,0-28.31a17.19,17.19,0,0,1,4.1-11.62c4.32-4.92,9.87-6.21,16-4.73s9.84,5.57,11.42,11.58c1.85,7.09-.35,13.82-5.67,17.84A15.73,15.73,0,0,1,267,53.2a1.37,1.37,0,0,1-.63-1c-.06-1.64,0-3.28,0-5,1.24.61,2.4,1.21,3.58,1.74a11,11,0,0,0,7.15.64,9.34,9.34,0,0,0,7-6.31,13,13,0,0,0,.19-8.13c-1.46-4.91-5.42-7.63-10.81-7.47-4.37.13-8,3.39-9.06,8.35a20.3,20.3,0,0,0-.49,4.39c-.05,8.92,0,17.84,0,26.75Z" style="fill:#194fa2"/><path d="M1.23,54.45V49.17h1.3c4.91,0,9.83,0,14.75,0a15.92,15.92,0,0,0,2.38-.2c2.13-.34,3.88-1.22,4.61-3.45.8-2.42.63-4.76-1.23-6.57a23.06,23.06,0,0,0-4.79-3.53C15.4,33.81,12.36,32.56,9.5,31a23.14,23.14,0,0,1-4.74-3.42C1.31,24.25.65,20.17,2.13,15.76a10,10,0,0,1,9.22-7.1c4.53-.39,9.1-.22,13.65-.28,1.16,0,2.32,0,3.57,0v5.4H13.14c-2.59,0-4.43,1.1-5.21,3.08-1,2.48-.55,4.88,1.55,6.5a47.48,47.48,0,0,0,6,3.72c3,1.67,6.11,3.12,9.05,4.89s5.1,4.09,5.82,7.45c1.52,7.15-1.73,14.69-11.2,15.1-5.82.25-11.67.05-17.5,0A1.77,1.77,0,0,1,1.23,54.45Z" style="fill:#194fa2"/><path d="M140.51,32.35,119.35,44.2l-2.3-4.35,15.56-8.92a8.14,8.14,0,0,0-5.75-3.21c-5-.45-9,1.73-10.89,5.92a12.54,12.54,0,0,0,2.37,13.67c3.83,3.73,13.74,4.22,16.51-3.49.46-1.3.89-2.62,1.34-4l5.34.67c1.14,5.1-4.87,12.39-11.61,14.18A16.51,16.51,0,0,1,120,23.23C128.24,20.51,136.58,23.58,140.51,32.35Z" style="fill:#194fa2"/><path d="M66.7,54.53H61.17v-1.4c0-5.11-.14-10.24,0-15.35.21-6.25-3.72-9.24-8.51-10a10.51,10.51,0,0,0-12.15,8.32c-1.38,6,1.82,11.9,7.33,13.44a9.31,9.31,0,0,0,9.65-2.67,11.1,11.1,0,0,0,.76-.91l.34.09a24.15,24.15,0,0,0,0,3.71C59,51.91,58,53,56.16,53.9c-6.43,3.32-15.13.65-19-6A17.9,17.9,0,0,1,35.8,32c2.08-5.5,6.39-8.42,12.06-9.4a18.05,18.05,0,0,1,10.56,1.24c5.45,2.42,8.17,6.8,8.34,12.65s0,11.75,0,17.63A2.27,2.27,0,0,1,66.7,54.53Z" style="fill:#194fa2"/><path d="M218.22,55.29a16.21,16.21,0,0,1-16.39-16.45,16.37,16.37,0,1,1,16.39,16.45Zm-.07-5.4c6.22,0,10.49-4.48,10.52-11s-4.28-11.14-10.42-11.16-10.5,4.52-10.52,11.05S212,49.88,218.15,49.89Z" style="fill:#194fa2"/><path d="M146.19,54.55V49.17h1.34c5.08,0,10.16,0,15.24,0,2.31,0,3.47-1.22,3.3-3.3a2.86,2.86,0,0,0-1.89-2.44c-1.83-.76-3.73-1.37-5.6-2.05a74,74,0,0,1-7.94-3c-3.83-1.91-5.17-5.13-4.28-9.18.72-3.34,3.56-5.74,7.65-5.94,5.18-.26,10.38-.18,15.58-.27.66,0,.83.3.82.87,0,1.16,0,2.32,0,3.48,0,.85-.32,1.07-1.14,1.07q-7.12,0-14.27,0c-2.09,0-3.16,1.13-3,3a2.7,2.7,0,0,0,1.9,2.28c1.92.75,3.89,1.41,5.88,2,3.07.9,6.16,1.74,8.81,3.63a8.3,8.3,0,0,1-1.13,14.11,11,11,0,0,1-4.26,1C157.6,54.62,152,54.55,146.19,54.55Z" style="fill:#194fa2"/><path d="M197.82,49.31v5.18c-5.28.28-10.43.31-14.92-3.06a15.9,15.9,0,0,1-5.76-16.87,15.64,15.64,0,0,1,13.22-11.31,68.4,68.4,0,0,1,7.45-.05v5.21c-1.47,0-2.94-.09-4.4,0a16.53,16.53,0,0,0-4.09.7,10,10,0,0,0-6.78,10.65,10,10,0,0,0,8.22,9.08A63.85,63.85,0,0,0,197.82,49.31Z" style="fill:#194fa2"/><path d="M245.41,54.52h-5.56V23.08h5.32v3.28l.28.24c2.3-3.58,5.7-4.5,9.68-4.27v5.29a23.23,23.23,0,0,0-2.35.18,7.65,7.65,0,0,0-6.6,6.11,22.26,22.26,0,0,0-.73,5.2c-.1,4.63,0,9.28,0,13.91Z" style="fill:#194fa2"/><g style="clip-path:url(#clip-path)"><g style="opacity:0.300000011920929;isolation:isolate"><g style="clip-path:url(#clip-path-2)"><polygon points="325.65 36.43 291.5 2.38 274.77 2.38 274.65 2.5 325.65 53.37 325.65 36.43" style="fill:#f15e22"/></g></g><g style="opacity:0.5;isolation:isolate"><g style="clip-path:url(#clip-path-3)"><polygon points="325.65 36.43 325.65 19.5 308.48 2.38 291.5 2.38 325.65 36.43" style="fill:#f15e22"/></g></g><g style="opacity:0.800000011920929;isolation:isolate"><g style="clip-path:url(#clip-path-4)"><polygon points="325.65 19.5 325.65 2.56 325.46 2.38 308.48 2.38 325.65 19.5" style="fill:#f15e22"/></g></g></g><path d="M5.92,89.73v-.87h5.55a6.58,6.58,0,0,0,1.85-.21A2.51,2.51,0,0,0,15.05,87a3.25,3.25,0,0,0,.2-1.11A3,3,0,0,0,15,84.65a2.79,2.79,0,0,0-.74-1,4.56,4.56,0,0,0-.94-.59,15.63,15.63,0,0,0-1.54-.59l-1.91-.62a9.9,9.9,0,0,1-2-.8,4.52,4.52,0,0,1-1.21-1,3.55,3.55,0,0,1-.8-2.36,3.33,3.33,0,0,1,1.18-2.78A5.54,5.54,0,0,1,10.52,74h4.89v.87H10.62a7,7,0,0,0-1.94.21,2.43,2.43,0,0,0-1.16.72,2.59,2.59,0,0,0-.66,1.81,3,3,0,0,0,.24,1.2,2.62,2.62,0,0,0,.66.93,3.71,3.71,0,0,0,.93.6,14.4,14.4,0,0,0,1.46.56l1.91.61a11.5,11.5,0,0,1,1.23.43,7.76,7.76,0,0,1,.91.44,4.64,4.64,0,0,1,.68.51,5.36,5.36,0,0,1,.56.6,4.12,4.12,0,0,1,.6,1.16,4.54,4.54,0,0,1,.2,1.32,3.84,3.84,0,0,1-.52,2,3.57,3.57,0,0,1-1.42,1.36,2.62,2.62,0,0,1-.52.22,4.14,4.14,0,0,1-.56.15,6.57,6.57,0,0,1-.69.08l-.87,0Z" style="fill:#194fa2;stroke:#194fa2;stroke-miterlimit:10;stroke-width:0.25px"/><path d="M19.21,80.05v6.19a4.53,4.53,0,0,0,.15,1.28,1.71,1.71,0,0,0,.47.82,2,2,0,0,0,.88.44,6.6,6.6,0,0,0,1.38.13H23v.82h-.83l-1.06,0a4.74,4.74,0,0,1-.74-.1,1.76,1.76,0,0,1-.56-.2,3.79,3.79,0,0,1-.52-.34,2.3,2.3,0,0,1-.81-1.1,6,6,0,0,1-.23-1.87V76.15h.92v3.07H23v.83Z" style="fill:#194fa2;stroke:#194fa2;stroke-miterlimit:10;stroke-width:0.25px"/><path d="M34.89,89.73H34V85.16A6.65,6.65,0,0,0,33.65,83a4.81,4.81,0,0,0-.91-1.67,4,4,0,0,0-1.43-1.08,4.51,4.51,0,0,0-1.86-.38,4.23,4.23,0,0,0-1.73.37,4.83,4.83,0,0,0-1.41,1,5,5,0,0,0-1,1.46,4.7,4.7,0,0,0,0,3.56,5,5,0,0,0,1,1.46,4.41,4.41,0,0,0,3.17,1.34,4.49,4.49,0,0,0,1.95-.42,6,6,0,0,0,1.76-1.33v1.09a5.67,5.67,0,0,1-1.73,1.14,5.37,5.37,0,0,1-2,.35,5.3,5.3,0,0,1-2.11-.42,5.13,5.13,0,0,1-1.71-1.14,5.29,5.29,0,0,1-1.15-1.73,5.52,5.52,0,0,1-.41-2.12,5.32,5.32,0,0,1,.42-2.1,5.48,5.48,0,0,1,2.9-2.91,5.24,5.24,0,0,1,2.09-.42,5.17,5.17,0,0,1,2.13.43,5.37,5.37,0,0,1,2.86,3,6,6,0,0,1,.41,2.25Z" style="fill:#194fa2;stroke:#194fa2;stroke-miterlimit:10;stroke-width:0.25px"/><path d="M38.48,89.73h-.92V79.22h.92v2a5,5,0,0,1,1.41-1.69,3.05,3.05,0,0,1,1.73-.48H42l.68.08V80l-.13,0h-.11L42,79.92H41.7a2.71,2.71,0,0,0-2.35,1.21,5.63,5.63,0,0,0-.87,3.32Z" style="fill:#194fa2;stroke:#194fa2;stroke-miterlimit:10;stroke-width:0.25px"/><path d="M44.69,80.05v6.19a4.53,4.53,0,0,0,.15,1.28,1.71,1.71,0,0,0,.47.82,2,2,0,0,0,.88.44,6.63,6.63,0,0,0,1.39.13h.94v.82h-.83l-1.06,0a4.74,4.74,0,0,1-.74-.1,1.76,1.76,0,0,1-.56-.2,3.79,3.79,0,0,1-.52-.34A2.3,2.3,0,0,1,44,88a6,6,0,0,1-.23-1.87V76.15h.92v3.07h3.83v.83Z" style="fill:#194fa2;stroke:#194fa2;stroke-miterlimit:10;stroke-width:0.25px"/><path d="M49.16,84.61v-.9h4.77v.9Z" style="fill:#194fa2;stroke:#194fa2;stroke-miterlimit:10;stroke-width:0.25px"/><path d="M62.83,79.22h.92v6a5.12,5.12,0,0,1-.32,1.86,4.23,4.23,0,0,1-.91,1.48,4,4,0,0,1-1.39,1,4.55,4.55,0,0,1-3.5,0,4,4,0,0,1-1.38-1,4.35,4.35,0,0,1-.89-1.47A5,5,0,0,1,55,85.29V79.22H56v5.59a6.27,6.27,0,0,0,.25,2A3.08,3.08,0,0,0,57,88.08a3.48,3.48,0,0,0,1.09.73,3.28,3.28,0,0,0,1.27.26,3.32,3.32,0,0,0,1.83-.54,3.22,3.22,0,0,0,1.22-1.4,4.76,4.76,0,0,0,.31-1,9.44,9.44,0,0,0,.09-1.41Z" style="fill:#194fa2;stroke:#194fa2;stroke-miterlimit:10;stroke-width:0.25px"/><path d="M66,95V85a7,7,0,0,1,.4-2.39,6,6,0,0,1,1.11-1.88,5.23,5.23,0,0,1,1.7-1.23,5.7,5.7,0,0,1,4.32,0,5.5,5.5,0,0,1,1.73,1.17,5.76,5.76,0,0,1,1.16,1.74,5.46,5.46,0,0,1,.42,2.15,5.27,5.27,0,0,1-.42,2.09,5.34,5.34,0,0,1-2.89,2.84,5.16,5.16,0,0,1-2.1.43,5.32,5.32,0,0,1-3.7-1.51V87.28a7.56,7.56,0,0,0,1.84,1.38,4.11,4.11,0,0,0,1.87.41,4.45,4.45,0,0,0,3.19-1.33,4.55,4.55,0,0,0,1-1.46,4.74,4.74,0,0,0,.34-1.81,4.56,4.56,0,0,0-.35-1.78,4.7,4.7,0,0,0-1-1.45,4.64,4.64,0,0,0-1.42-1,4.23,4.23,0,0,0-1.73-.37,4.06,4.06,0,0,0-1.2.18,4.85,4.85,0,0,0-1.09.49,4,4,0,0,0-1,.75,5,5,0,0,0-.71,1,6.52,6.52,0,0,0-.59,3V95Z" style="fill:#194fa2;stroke:#194fa2;stroke-miterlimit:10;stroke-width:0.25px"/><path d="M106.11,89.73h-.93V74.85h-4.53V74h9.94v.87h-4.48Z" style="fill:#194fa2;stroke:#194fa2;stroke-miterlimit:10;stroke-width:0.25px"/><path d="M122.78,89.73h-.92V85.16a6.93,6.93,0,0,0-.32-2.15,5.16,5.16,0,0,0-.91-1.67,4.14,4.14,0,0,0-1.44-1.08,4.51,4.51,0,0,0-1.86-.38,4.15,4.15,0,0,0-1.72.37,4.58,4.58,0,0,0-1.41,1,4.63,4.63,0,0,0-1,1.46,4.58,4.58,0,0,0,0,3.56,4.63,4.63,0,0,0,1,1.46,4.15,4.15,0,0,0,1.42,1,4.24,4.24,0,0,0,1.74.36,4.49,4.49,0,0,0,2-.42,6.22,6.22,0,0,0,1.77-1.33v1.09a5.71,5.71,0,0,1-1.74,1.14,5.69,5.69,0,0,1-4.11-.07,5.23,5.23,0,0,1-1.71-1.14,5.11,5.11,0,0,1-1.14-1.73,5.35,5.35,0,0,1-.42-2.12,5.16,5.16,0,0,1,.43-2.1,5.44,5.44,0,0,1,1.17-1.74,5.7,5.7,0,0,1,1.72-1.17,5.48,5.48,0,0,1,4.23,0,5.59,5.59,0,0,1,1.71,1.21,5.4,5.4,0,0,1,1.14,1.82,6,6,0,0,1,.42,2.25Z" style="fill:#194fa2;stroke:#194fa2;stroke-miterlimit:10;stroke-width:0.25px"/><path d="M134,88.91v.82l-.35,0a4.63,4.63,0,0,1-3-1.28,4.51,4.51,0,0,1-.7-.82,7.19,7.19,0,0,1-.59-1.21,7.72,7.72,0,0,1-.6,1.15,4.71,4.71,0,0,1-.68.79,4.76,4.76,0,0,1-3.21,1.37l-.31,0v-.82l.28,0a4.06,4.06,0,0,0,1.57-.45,4.47,4.47,0,0,0,1.3-1,4.37,4.37,0,0,0,.88-1.35,4.22,4.22,0,0,0,.32-1.62,4.26,4.26,0,0,0-.33-1.65,4.81,4.81,0,0,0-.89-1.42,4.36,4.36,0,0,0-1.3-1,3.38,3.38,0,0,0-1.55-.38h-.28v-.83l.28,0a6,6,0,0,1,1.62.35,4.88,4.88,0,0,1,1.45.83,3.72,3.72,0,0,1,.45.4,3.54,3.54,0,0,1,.35.42c.1.16.2.33.3.52l.35.66c.09-.23.18-.43.25-.6a5,5,0,0,1,.26-.46,4.08,4.08,0,0,1,.31-.39c.11-.12.25-.25.4-.39a4.55,4.55,0,0,1,1.49-.93,6.74,6.74,0,0,1,1.72-.41l.24,0v.83h-.24a3.32,3.32,0,0,0-1.55.38,4.27,4.27,0,0,0-1.28,1,4.73,4.73,0,0,0-.86,1.42,4.44,4.44,0,0,0-.32,1.65,4.3,4.3,0,0,0,.32,1.63,4.46,4.46,0,0,0,.85,1.37,4.19,4.19,0,0,0,1.25,1,4.09,4.09,0,0,0,1.52.44Z" style="fill:#194fa2;stroke:#194fa2;stroke-miterlimit:10;stroke-width:0.25px"/><path d="M145.83,89.73h-.93V85.16a6.94,6.94,0,0,0-.31-2.15,5,5,0,0,0-.92-1.67,4,4,0,0,0-1.43-1.08,4.51,4.51,0,0,0-1.86-.38,4.23,4.23,0,0,0-1.73.37,4.63,4.63,0,0,0-2.36,2.46,4.58,4.58,0,0,0,0,3.56,4.63,4.63,0,0,0,1,1.46,4.15,4.15,0,0,0,1.42,1,4.24,4.24,0,0,0,1.74.36,4.49,4.49,0,0,0,2-.42,6.22,6.22,0,0,0,1.77-1.33v1.09a5.83,5.83,0,0,1-1.74,1.14,5.69,5.69,0,0,1-4.11-.07,5.23,5.23,0,0,1-1.71-1.14,5.29,5.29,0,0,1-1.15-1.73,5.52,5.52,0,0,1-.41-2.12,5.16,5.16,0,0,1,.43-2.1,5.58,5.58,0,0,1,1.16-1.74,5.74,5.74,0,0,1,1.73-1.17,5.48,5.48,0,0,1,4.23,0,5.59,5.59,0,0,1,1.71,1.21,5.4,5.4,0,0,1,1.14,1.82,6,6,0,0,1,.42,2.25Z" style="fill:#194fa2;stroke:#194fa2;stroke-miterlimit:10;stroke-width:0.25px"/><path d="M148.94,80.05v6.19a5,5,0,0,0,.14,1.28,1.81,1.81,0,0,0,.48.82,2,2,0,0,0,.88.44,6.6,6.6,0,0,0,1.38.13h1v.82h-.83l-1.06,0a4.74,4.74,0,0,1-.74-.1,1.76,1.76,0,0,1-.56-.2,3.79,3.79,0,0,1-.52-.34,2.3,2.3,0,0,1-.81-1.1A6,6,0,0,1,148,86.1V76.15h.92v3.07h3.83v.83Z" style="fill:#194fa2;stroke:#194fa2;stroke-miterlimit:10;stroke-width:0.25px"/><path d="M155.7,75.4a.79.79,0,0,1,.6.26.88.88,0,0,1,.25.61.89.89,0,0,1-.24.62.76.76,0,0,1-.57.26.93.93,0,0,1-.66-.26.9.9,0,0,1-.26-.64.82.82,0,0,1,.26-.59A.83.83,0,0,1,155.7,75.4Zm.45,14.33h-.93V79.22h.93Z" style="fill:#194fa2;stroke:#194fa2;stroke-miterlimit:10;stroke-width:0.25px"/><path d="M158.36,84.47a5.24,5.24,0,0,1,.43-2.09A5.54,5.54,0,0,1,160,80.65a5.6,5.6,0,0,1,1.7-1.17,5.15,5.15,0,0,1,2.08-.42,5.32,5.32,0,0,1,2.1.42,5.58,5.58,0,0,1,1.72,1.17,5.71,5.71,0,0,1,1.16,1.73,5.51,5.51,0,0,1,0,4.22,5.7,5.7,0,0,1-1.15,1.72,5.32,5.32,0,0,1-1.7,1.15,5.08,5.08,0,0,1-2.09.43,5.22,5.22,0,0,1-2.12-.43,5.36,5.36,0,0,1-1.71-1.15,5.57,5.57,0,0,1-1.15-1.73A5.39,5.39,0,0,1,158.36,84.47Zm9.85,0a4.77,4.77,0,0,0-.35-1.8,4.68,4.68,0,0,0-1-1.47,4.81,4.81,0,0,0-1.43-1,4.31,4.31,0,0,0-1.74-.37,4.1,4.1,0,0,0-1.71.37,4.9,4.9,0,0,0-1.42,1,4.75,4.75,0,0,0-1,1.46,4.68,4.68,0,0,0,0,3.55,5,5,0,0,0,1,1.46,4.51,4.51,0,0,0,1.44,1,4.21,4.21,0,0,0,1.76.37,4.14,4.14,0,0,0,1.72-.36,4.54,4.54,0,0,0,2.69-4.2Z" style="fill:#194fa2;stroke:#194fa2;stroke-miterlimit:10;stroke-width:0.25px"/><path d="M179.36,89.73h-.92V84.12a6.55,6.55,0,0,0-.24-2,3,3,0,0,0-.8-1.31,3.22,3.22,0,0,0-1.09-.73,3.6,3.6,0,0,0-1.28-.25,3.32,3.32,0,0,0-1.83.54A3,3,0,0,0,172,81.8a4.63,4.63,0,0,0-.32,1.07,8.21,8.21,0,0,0-.1,1.42v5.44h-.93v-6a4.94,4.94,0,0,1,.34-1.87,4.6,4.6,0,0,1,.9-1.46A4.25,4.25,0,0,1,175,79.06a4.37,4.37,0,0,1,1.75.34,4,4,0,0,1,1.38,1,4.23,4.23,0,0,1,.9,1.45,5.24,5.24,0,0,1,.32,1.85Z" style="fill:#194fa2;stroke:#194fa2;stroke-miterlimit:10;stroke-width:0.25px"/><path d="M204.83,88.86v.87h-1.77a8,8,0,0,1-3.11-.59,7.39,7.39,0,0,1-2.5-1.64A7.69,7.69,0,0,1,195.8,85a7.93,7.93,0,0,1-.6-3.1,7.78,7.78,0,0,1,2.38-5.67,8,8,0,0,1,2.64-1.67,8.87,8.87,0,0,1,3.29-.6h1.32v.87h-1.15a8.06,8.06,0,0,0-3,.54,7.18,7.18,0,0,0-2.37,1.47,6.74,6.74,0,0,0-1.57,2.23,6.84,6.84,0,0,0-.57,2.8,7.29,7.29,0,0,0,.53,2.81,6.59,6.59,0,0,0,1.49,2.2,7,7,0,0,0,2.29,1.44,7.9,7.9,0,0,0,2.92.52Z" style="fill:#194fa2;stroke:#194fa2;stroke-miterlimit:10;stroke-width:0.25px"/><path d="M205.87,84.47a5.08,5.08,0,0,1,.43-2.09,5.46,5.46,0,0,1,2.85-2.9,5.19,5.19,0,0,1,2.08-.42,5.32,5.32,0,0,1,2.1.42,5.5,5.5,0,0,1,1.73,1.17,5.71,5.71,0,0,1,1.16,1.73,5.51,5.51,0,0,1,0,4.22,5.7,5.7,0,0,1-1.15,1.72,5.43,5.43,0,0,1-1.7,1.15,5.08,5.08,0,0,1-2.09.43,5.27,5.27,0,0,1-2.13-.43,5.36,5.36,0,0,1-1.71-1.15,5.54,5.54,0,0,1-1.14-1.73A5.22,5.22,0,0,1,205.87,84.47Zm9.85,0a4.59,4.59,0,0,0-.36-1.8,4.36,4.36,0,0,0-1-1.47,4.77,4.77,0,0,0-1.42-1,4.32,4.32,0,0,0-1.75-.37,4.17,4.17,0,0,0-1.71.37,4.85,4.85,0,0,0-1.41,1,4.75,4.75,0,0,0-1,1.46,4.56,4.56,0,0,0,0,3.55,5,5,0,0,0,1,1.46,4.3,4.3,0,0,0,1.44,1,4.33,4.33,0,0,0,3.48,0,4.54,4.54,0,0,0,2.69-4.2Z" style="fill:#194fa2;stroke:#194fa2;stroke-miterlimit:10;stroke-width:0.25px"/><path d="M226.87,89.73H226V84.12a6.55,6.55,0,0,0-.24-2,3.12,3.12,0,0,0-.8-1.31,3.22,3.22,0,0,0-1.09-.73,3.61,3.61,0,0,0-1.29-.25,3.29,3.29,0,0,0-1.82.54,3,3,0,0,0-1.21,1.38,4.63,4.63,0,0,0-.32,1.07,8.11,8.11,0,0,0-.11,1.42v5.44h-.92v-6a5.14,5.14,0,0,1,.33-1.87,4.62,4.62,0,0,1,.91-1.46,4.36,4.36,0,0,1,1.38-1,4.61,4.61,0,0,1,3.5,0,4.18,4.18,0,0,1,1.38,1,4.23,4.23,0,0,1,.9,1.45,5.24,5.24,0,0,1,.32,1.85Z" style="fill:#194fa2;stroke:#194fa2;stroke-miterlimit:10;stroke-width:0.25px"/><path d="M229,89.73v-.82h4.69c1.67,0,2.51-.61,2.51-1.82a1.61,1.61,0,0,0-.51-1.25,4,4,0,0,0-1.67-.81l-1.47-.4-.74-.19a1.86,1.86,0,0,1-.42-.12,4.84,4.84,0,0,1-.61-.21,5.52,5.52,0,0,1-.55-.26A2.25,2.25,0,0,1,229,81.73a2.22,2.22,0,0,1,.85-1.87,4.17,4.17,0,0,1,2.5-.64h4v.83h-3.7a4.43,4.43,0,0,0-2.13.38,1.36,1.36,0,0,0-.64,1.27,1.86,1.86,0,0,0,.13.7,1.32,1.32,0,0,0,.47.54,3.2,3.2,0,0,0,.87.45,14.2,14.2,0,0,0,1.4.41l1.49.38a5.23,5.23,0,0,1,2.21,1,2.34,2.34,0,0,1,.68,1.76,2.72,2.72,0,0,1-.43,1.49,2.45,2.45,0,0,1-1.13,1,3.26,3.26,0,0,1-.87.22,10.28,10.28,0,0,1-1.25.06Z" style="fill:#194fa2;stroke:#194fa2;stroke-miterlimit:10;stroke-width:0.25px"/><path d="M247.08,79.22H248v6a5.12,5.12,0,0,1-.32,1.86,4.23,4.23,0,0,1-.91,1.48,4,4,0,0,1-1.39,1,4.37,4.37,0,0,1-1.75.35,4.33,4.33,0,0,1-1.74-.35,4,4,0,0,1-1.39-1,4.35,4.35,0,0,1-.89-1.47,5,5,0,0,1-.32-1.84V79.22h.92v5.59a6.27,6.27,0,0,0,.25,2,3.08,3.08,0,0,0,.81,1.31,3.48,3.48,0,0,0,1.09.73,3.28,3.28,0,0,0,1.27.26,3.32,3.32,0,0,0,1.83-.54,3.22,3.22,0,0,0,1.22-1.4,4.76,4.76,0,0,0,.31-1,9.44,9.44,0,0,0,.09-1.41Z" style="fill:#194fa2;stroke:#194fa2;stroke-miterlimit:10;stroke-width:0.25px"/><path d="M251.62,89.73h-.93V74h.93Z" style="fill:#194fa2;stroke:#194fa2;stroke-miterlimit:10;stroke-width:0.25px"/><path d="M255.2,80.05v6.19a4.53,4.53,0,0,0,.15,1.28,1.71,1.71,0,0,0,.47.82,2,2,0,0,0,.88.44,6.63,6.63,0,0,0,1.39.13H259v.82h-.83l-1.06,0a4.74,4.74,0,0,1-.74-.1,1.76,1.76,0,0,1-.56-.2,3.79,3.79,0,0,1-.52-.34,2.3,2.3,0,0,1-.81-1.1,6,6,0,0,1-.23-1.87V76.15h.92v3.07H259v.83Z" style="fill:#194fa2;stroke:#194fa2;stroke-miterlimit:10;stroke-width:0.25px"/><path d="M262,75.4a.77.77,0,0,1,.6.26.84.84,0,0,1,.25.61.89.89,0,0,1-.24.62.74.74,0,0,1-.56.26.94.94,0,0,1-.67-.26.9.9,0,0,1-.26-.64.82.82,0,0,1,.26-.59A.83.83,0,0,1,262,75.4Zm.45,14.33h-.92V79.22h.92Z" style="fill:#194fa2;stroke:#194fa2;stroke-miterlimit:10;stroke-width:0.25px"/><path d="M274.05,89.73h-.92V84.12a6.55,6.55,0,0,0-.24-2,3,3,0,0,0-.8-1.31,3.22,3.22,0,0,0-1.09-.73,3.6,3.6,0,0,0-1.28-.25,3.32,3.32,0,0,0-1.83.54,3,3,0,0,0-1.21,1.38,4.63,4.63,0,0,0-.32,1.07,8.21,8.21,0,0,0-.1,1.42v5.44h-.92v-6a5.14,5.14,0,0,1,.33-1.87,4.6,4.6,0,0,1,.9-1.46,4.25,4.25,0,0,1,3.13-1.32,4.37,4.37,0,0,1,1.75.34,4,4,0,0,1,1.38,1,4.23,4.23,0,0,1,.9,1.45,5.24,5.24,0,0,1,.32,1.85Z" style="fill:#194fa2;stroke:#194fa2;stroke-miterlimit:10;stroke-width:0.25px"/><path d="M281.13,95.19a9.59,9.59,0,0,1-1.6-.13,13.86,13.86,0,0,1-1.75-.4l.21-.84a16.48,16.48,0,0,0,1.7.42,8.39,8.39,0,0,0,1.44.12,4.92,4.92,0,0,0,2.31-.54A3.88,3.88,0,0,0,285,92.28a4,4,0,0,0,.39-1.13,9.4,9.4,0,0,0,.1-1.58V85.29a7,7,0,0,0-.32-2.23,5,5,0,0,0-.92-1.71,4.11,4.11,0,0,0-1.45-1.09,4.5,4.5,0,0,0-1.85-.38,4.34,4.34,0,0,0-1.77.36,4.43,4.43,0,0,0-1.42,1,4.53,4.53,0,0,0-.95,1.48,5,5,0,0,0-.34,1.83,4.38,4.38,0,0,0,.36,1.77,4.5,4.5,0,0,0,1,1.43A4.45,4.45,0,0,0,281,89.07a6.17,6.17,0,0,0,1-.08,3.85,3.85,0,0,0,.91-.29,5.36,5.36,0,0,0,.9-.54,8.48,8.48,0,0,0,1-.84V88.5a10.26,10.26,0,0,1-1,.67,7.06,7.06,0,0,1-.89.42,4.4,4.4,0,0,1-.86.24,6.76,6.76,0,0,1-.93.07,5.23,5.23,0,0,1-2.13-.43,5.29,5.29,0,0,1-1.73-1.17A5.48,5.48,0,0,1,276,86.57a5.17,5.17,0,0,1-.44-2.1,5.24,5.24,0,0,1,.43-2.11,5.38,5.38,0,0,1,1.16-1.72,5.71,5.71,0,0,1,1.73-1.16,5.3,5.3,0,0,1,2.11-.42,5.51,5.51,0,0,1,2.21.43,5,5,0,0,1,1.71,1.24A6,6,0,0,1,286,82.64a7,7,0,0,1,.4,2.44v4.77a6.21,6.21,0,0,1-.48,2.61,4.46,4.46,0,0,1-1.55,1.76A5.6,5.6,0,0,1,281.13,95.19Z" style="fill:#194fa2;stroke:#194fa2;stroke-miterlimit:10;stroke-width:0.25px"/><rect x="85.46" y="77.51" width="0.53" height="12.43" style="fill:#194fa2"/><rect x="185.22" y="77.51" width="0.53" height="12.43" style="fill:#194fa2"/></svg>